<?xml version="1.0" encoding="utf-8"?>
<!-- Generator: Adobe Illustrator 19.2.0, SVG Export Plug-In . SVG Version: 6.00 Build 0)  -->
<svg version="1.1" id="Layer_1" xmlns="http://www.w3.org/2000/svg" xmlns:xlink="http://www.w3.org/1999/xlink" x="0px" y="0px"
	 viewBox="0 0 50 50" style="enable-background:new 0 0 50 50;" xml:space="preserve">
<path d="M40.5,20.6l-15.3-6.1c-0.1-0.1-0.3-0.1-0.4,0L9.4,20.6c-0.3,0.1-0.5,0.4-0.5,0.8c0,0.3,0.2,0.7,0.5,0.8L19,26v4.9
	c0,0.2,0.1,0.5,0.2,0.6c1.6,1.7,3.6,2.6,5.8,2.6l0,0l0,0c2.1,0,4.2-0.9,5.7-2.6c0.1-0.2,0.2-0.4,0.2-0.6V26l1.4-0.6v9.3
	c0,0.4,0.3,0.8,0.7,0.8s0.7-0.4,0.7-0.8v-9.8l6.9-2.7c0.3-0.1,0.5-0.4,0.5-0.8C40.9,21,40.8,20.7,40.5,20.6z M29.6,30.4
	c-1.3,1.3-3,2-4.6,2l0,0c-1.7,0-3.3-0.7-4.6-2v-4l4.4,1.8c0.1,0,0.1,0,0.2,0l0,0c0.1,0,0.1,0,0.2,0l4.4-1.8V30.4z M33,23.4l-7.8-3.1
	c-0.3-0.1-0.7,0.1-0.8,0.5c-0.1,0.4,0.1,0.9,0.4,1l6.1,2.4L25,26.5l-13.2-5.2L25,16.1l13.2,5.2L33,23.4z"/>
</svg>
