<?xml version="1.0" encoding="utf-8"?>
<!-- Generator: Adobe Illustrator 19.2.0, SVG Export Plug-In . SVG Version: 6.00 Build 0)  -->
<svg version="1.1" id="Layer_1" xmlns="http://www.w3.org/2000/svg" xmlns:xlink="http://www.w3.org/1999/xlink" x="0px" y="0px"
	 viewBox="0 0 50 50" style="enable-background:new 0 0 50 50;" xml:space="preserve">
<path d="M21.6,23.6c0.4-0.5-1.4-5.2-0.1-5.7c1-0.3,0.9,1.4,1,1.9c0.1,1,0.3,2.3,0.7,3.2c0.3-1.5,0.3-3,0.4-4.5
	c0-0.5,0.2-1.5,0.8-1.5c1.5,0.1-0.2,5,0.8,5.6c0.7-0.7,0.9-2.7,1.1-3.6c0.1-0.4,0.2-1.7,1.2-1.1c0.7,0.4,0.1,2.9-0.1,3.7
	c-0.2,0.8-0.2,1.4-0.5,2.4c-0.1,0.7-0.2,1.4,0.3,1.9c0.8,0,2.7-2.2,3.6-1.5c0.6,0.4,0.3,1-0.1,1.3c-3.1,1.9-2.6,4.3-4.1,4.6
	c0,2.4-0.2,0.2,0.1,2.7c-1.6,0.3-3.3,0.2-4.8,0.1c0,0,0,0,0,0c0.1-1.3,0.1-0.3,0.2-1.7c0.1-1.1,0.1,0.2,0.1-0.9l0-0.1
	c-1-0.2-1.3-1.9-1.6-3C20,26,20.5,25,20,23.8c-0.3-0.9-1.5-3-0.7-3.7c0.5-0.4,0.7-0.1,1.1,0.7C20.6,21.6,20.8,23.5,21.6,23.6z"/>
</svg>
