<?xml version="1.0" encoding="utf-8"?>
<!-- Generator: Adobe Illustrator 19.2.0, SVG Export Plug-In . SVG Version: 6.00 Build 0)  -->
<svg version="1.1" id="Layer_1" xmlns="http://www.w3.org/2000/svg" xmlns:xlink="http://www.w3.org/1999/xlink" x="0px" y="0px"
	 viewBox="0 0 50 50" style="enable-background:new 0 0 50 50;" xml:space="preserve">
<style type="text/css">
	.st0{fill:#231F20;}
</style>
<path class="st0" d="M22.3,18.7c0.7-0.5,1.6-0.7,2.6-0.7c1.3,0,2.4,0.3,3.3,1c0.9,0.7,1.3,1.7,1.3,3c0,0.8-0.2,1.5-0.6,2.1
	c-0.2,0.3-0.7,0.8-1.3,1.3L27,25.9c-0.3,0.3-0.6,0.6-0.7,1c-0.1,0.2-0.1,0.6-0.1,1.1h-2.4c0-1.1,0.1-1.8,0.3-2.2
	c0.2-0.4,0.5-0.9,1.2-1.4l0.6-0.5c0.2-0.2,0.4-0.4,0.5-0.6c0.2-0.3,0.4-0.7,0.4-1.1c0-0.5-0.1-0.9-0.4-1.3c-0.3-0.4-0.7-0.6-1.4-0.6
	c-0.7,0-1.2,0.2-1.5,0.7c-0.3,0.5,0,1,0,1.5h-2.9C20.6,20.7,21.2,19.5,22.3,18.7z M23.7,29.3h2.7l0.3,2.7h-3.3L23.7,29.3z"/>
</svg>
