<?xml version="1.0" encoding="utf-8"?>
<!-- Generator: Adobe Illustrator 19.2.0, SVG Export Plug-In . SVG Version: 6.00 Build 0)  -->
<svg version="1.1" id="Layer_1" xmlns="http://www.w3.org/2000/svg" xmlns:xlink="http://www.w3.org/1999/xlink" x="0px" y="0px"
	 viewBox="0 0 50 50" style="enable-background:new 0 0 50 50;" xml:space="preserve">
<g>
	<g>
		<path d="M32.1,23.5c0-0.2-0.1-0.4-0.2-0.6c-0.1-0.4-0.5-0.7-0.7-1c-0.2-0.4-0.5-0.8-0.8-1.2c-0.2-0.3-0.5-0.6-0.8-0.8
			c-0.1-0.1-0.3-0.2-0.4-0.3c-0.2-0.1-0.4-0.2-0.6-0.3c-0.3-0.2-0.6-0.5-0.9-0.7c-0.7-0.6-1.5-0.8-2.4-1c-0.6-0.1-1.1,0-1.6,0.1
			c-0.1,0-0.3,0-0.4,0.1c-0.2,0-0.4,0-0.6,0c-1.4,0.2-2.6,1.1-3.5,2c-0.1,0.2-0.2,0.3-0.3,0.5c-0.1,0.2-0.2,0.3-0.3,0.5
			c-0.1,0.2-0.2,0.4-0.3,0.5s-0.2,0.4-0.3,0.5c-0.1,0.2-0.2,0.5-0.2,0.7c-0.1,0.5-0.2,1-0.2,1.5c0,0.2,0,0.3,0,0.5
			c0,0.3,0.1,0.7,0.1,1c0.1,0.4,0.1,0.8,0.3,1.2c0.2,0.8,0.5,1.5,0.9,2.3c0.3,0.5,0.6,1,1,1.5c0.9,1.2,2.2,1.6,3.6,1.9
			c1.5,0.4,3,0.1,4.4-0.4c0.7-0.2,1.3-0.6,1.9-0.9c0,0,0,0,0,0c0.5-0.5,1.1-0.9,1.6-1.4c0.2-0.2,0.3-0.6,0.5-0.9
			c0.4-0.9,0.8-1.8,0.8-2.8C32.4,25.1,32.2,24.3,32.1,23.5z M30.3,28.1c-0.2,0.6-0.6,1.1-1.1,1.5c-0.4,0.3-0.8,0.6-1.3,0.8
			c-0.5,0.2-1.1,0.4-1.6,0.5c-0.9,0.1-1.8,0.3-2.8,0c-0.8-0.2-1.4-0.4-2-0.9c-0.6-0.5-1.1-1.1-1.5-1.8c-0.4-0.7-0.7-1.5-0.9-2.3
			c-0.1-0.8-0.3-1.5-0.2-2.3c0.1-0.5,0.1-1,0.2-1.4c0.1-0.2,0.1-0.3,0.2-0.4c0.1-0.1,0.1-0.3,0.2-0.4c0.8-1.8,2.8-2.1,4.5-2.5
			c0.1,0,0.3,0,0.5-0.1c0.9-0.1,1.6,0.3,2.4,0.6c0.3,0.1,0.5,0.3,0.8,0.4c0.5,0.2,0.9,0.5,1.2,0.8c0.3,0.4,0.6,0.9,1,1.3
			c0.3,0.5,0.7,0.9,0.8,1.5c0,0.3,0.1,0.6,0.2,0.9c0.1,0.5,0.1,0.9,0.2,1.4C31,26.5,30.6,27.3,30.3,28.1z M22.1,24.4
			c0.6,0,0.9-0.3,0.9-0.9c0-0.4-0.4-0.7-0.8-0.7c-0.6,0-0.9,0.4-1,0.9C21.1,24,21.7,24.4,22.1,24.4z M27.3,24.4c0.5,0,1-0.5,1-1
			c0-0.4-0.3-0.7-0.8-0.7c-0.6,0-1,0.4-1,0.9C26.5,24,26.9,24.4,27.3,24.4z M28.7,26.1c0-0.1-0.1-0.2-0.1-0.2c0,0-0.1,0-0.1,0
			c-0.3,0.1-0.6,0.2-0.8,0.5c-0.2,0.2-0.3,0.3-0.6,0.5c-0.2,0.1-0.5,0.4-1,0.6c-0.4,0.2-0.8,0.3-1.2,0.3c-0.2,0-0.4-0.1-0.6-0.1
			c-0.1,0-0.2-0.1-0.3-0.2c-0.2-0.1-0.4-0.2-0.5-0.3c0,0-0.4-0.3-0.4-0.3l-0.4-0.4c-0.4-0.4-0.6-0.2-0.8-0.1
			c-0.2,0.1-0.2,0.3-0.1,0.7c0.1,0.5,0.8,0.7,1.1,1c0.3,0.3,1,0.7,1.3,0.8c0.3,0.1,0.6,0.1,1,0.1c0.4,0,0.7,0.1,1.1,0
			c0.3-0.1,0.6-0.3,0.9-0.4c0.4-0.2,0.8-0.6,0.9-0.6c0.1-0.1,0.6-0.4,0.8-0.6c0.2-0.2,0.3-0.5,0.2-0.7
			C28.8,26.3,28.8,26.2,28.7,26.1z"/>
	</g>
</g>
</svg>
