<?xml version="1.0" encoding="utf-8"?>
<!-- Generator: Adobe Illustrator 19.2.0, SVG Export Plug-In . SVG Version: 6.00 Build 0)  -->
<svg version="1.1" id="Layer_1" xmlns="http://www.w3.org/2000/svg" xmlns:xlink="http://www.w3.org/1999/xlink" x="0px" y="0px"
	 viewBox="0 0 50 50" style="enable-background:new 0 0 50 50;" xml:space="preserve">
<path d="M35,32.3c3.4-4.5,3.3-10.7-0.2-15.2l0.7-0.7c0.3-0.3,0.3-0.8,0-1.2l-1.2-1.1c-0.3-0.3-0.8-0.3-1.2,0l-0.7,0.7
	c-2.1-1.6-4.7-2.5-7.5-2.5c-2.7,0-5.3,0.9-7.5,2.5l-0.8-0.8c-0.3-0.3-0.8-0.3-1.2,0l-1,1.3c-0.3,0.3-0.3,0.8,0,1.2l0.7,0.7
	c-3.5,4.4-3.5,10.7-0.2,15.2l-0.7,0.7c-0.3,0.3-0.3,0.8,0,1.2l1.2,1.2c0.3,0.3,0.8,0.3,1.2,0l0.6-0.6c2.2,1.7,4.9,2.7,7.7,2.7
	s5.5-0.9,7.7-2.7l0.5,0.5c0.3,0.3,0.8,0.3,1.2,0l1.2-1.2c0.3-0.3,0.3-0.8,0-1.2L35,32.3z M24.9,14.1c2.3,0,4.5,0.7,6.3,2l-2.3,2.3
	c-1.2-0.7-2.5-1.1-4-1.1c-1.4,0-2.8,0.4-4,1.1L18.5,16C20.5,14.8,22.6,14.1,24.9,14.1z M28.3,30.5c-1,0.6-2.2,1-3.4,1
	c-1.3,0-2.5-0.4-3.5-1c0.1-0.3,0-0.6-0.2-0.8l-1.1-1.3c-0.2-0.2-0.5-0.3-0.7-0.2c-1.2-2.1-1.2-4.7,0.2-6.8c0.3,0,0.5,0,0.7-0.2
	l1.2-1.2c0.2-0.2,0.2-0.4,0.2-0.7c1-0.6,2.1-0.9,3.3-0.9c1.2,0,2.3,0.3,3.3,0.9c0,0.2,0.1,0.5,0.2,0.6l1.2,1.2
	c0.2,0.2,0.5,0.3,0.7,0.2c1.3,2,1.4,4.6,0.2,6.7c-0.3-0.2-0.7-0.1-0.9,0.2l-1.2,1.2C28.2,29.6,28.2,30.1,28.3,30.5z M16,31.2
	c-2.7-3.9-2.6-9.1,0.2-12.9l2.3,2.3c-1.7,2.5-1.7,5.7-0.2,8.2L16,31.2z M24.9,35.8c-2.4,0-4.7-0.8-6.6-2.2l2.3-2.3
	c1.2,0.8,2.7,1.3,4.3,1.3c1.5,0,3-0.4,4.2-1.3l2.3,2.3C29.6,35.1,27.3,35.8,24.9,35.8z M33.8,31.2l-2.4-2.4c1.5-2.5,1.5-5.8-0.2-8.2
	l2.3-2.3C36.5,22.1,36.6,27.4,33.8,31.2z"/>
</svg>
