<?xml version="1.0" encoding="utf-8"?>
<!-- Generator: Adobe Illustrator 19.2.0, SVG Export Plug-In . SVG Version: 6.00 Build 0)  -->
<svg version="1.1" id="Layer_1" xmlns="http://www.w3.org/2000/svg" xmlns:xlink="http://www.w3.org/1999/xlink" x="0px" y="0px"
	 viewBox="0 0 50 50" style="enable-background:new 0 0 50 50;" xml:space="preserve">
<g>
	<g>
		<path d="M18.6,22.5c0,0.4,0.2,0.5,0.6,0.5h12c0.4,0,0.6-0.1,0.6-0.5S31.6,22,31.2,22h-12C18.9,22,18.6,22.1,18.6,22.5z M19.2,26
			h12c0.4,0,0.6,0.1,0.6-0.3S31.5,25,31.1,25H19.3c-0.4,0-0.7,0.3-0.7,0.7S18.9,26,19.2,26z M19.2,29h12c0.4,0,0.6,0.3,0.6-0.1
			S31.6,28,31.2,28h-12c-0.4,0-1,0.6-1,1S18.9,29,19.2,29z M19.2,31c-0.4,0-1,0.6-1,1c0,0.4,0.6,0,1,0h12c0.4,0,1,0.4,1,0
			c0-0.4-0.6-1-1-1H19.2z M34.5,16.6h-3.6c-0.1-1-0.9-1.8-2-1.8H27c0-1-0.9-1.8-1.9-1.8s-1.8,0.8-1.9,1.8h-1.9c-1,0-1.9,0.8-2,1.8
			h-3.6c-0.4,0-0.7,0.3-0.7,0.7v19c0,0.4,0.3,0.7,0.7,0.7h18.6c0.4,0,0.7-0.3,0.7-0.7v-19C35.2,16.9,34.9,16.6,34.5,16.6z
			 M20.9,16.7c0-0.3,0.3-0.6,0.6-0.6h2.1c0.7,0,1.2-0.5,1.2-1.2v-0.2c0-0.3,0.2-0.5,0.5-0.5s0.5,0.2,0.5,0.5v0.2
			c0,0.6,0.5,1.2,1.2,1.2h2.1c0.3,0,0.6,0.3,0.6,0.6V18H21v-1.3H20.9z M33.2,35h-16V19l2.3-1v0.8c0,0.4,0.3,0.7,0.7,0.7h10
			c0.4,0,0.7-0.3,0.7-0.7V18l2.3,1V35z M25.2,16.2c-0.4,0-0.6,0.3-0.6,0.6c0,0.3,0.3,0.6,0.6,0.6c0.4,0,0.6-0.3,0.6-0.6
			C25.9,16.5,25.6,16.2,25.2,16.2z"/>
	</g>
</g>
</svg>
