<?xml version="1.0" encoding="utf-8"?>
<!-- Generator: Adobe Illustrator 19.2.0, SVG Export Plug-In . SVG Version: 6.00 Build 0)  -->
<svg version="1.1" id="Layer_1" xmlns="http://www.w3.org/2000/svg" xmlns:xlink="http://www.w3.org/1999/xlink" x="0px" y="0px"
	 viewBox="0 0 47.3 41.1" style="enable-background:new 0 0 47.3 41.1;" xml:space="preserve">
<path d="M39.2,16.2l-15.3-6.1c-0.1-0.1-0.3-0.1-0.4,0L8.1,16.2c-0.3,0.1-0.5,0.4-0.5,0.8c0,0.3,0.2,0.7,0.5,0.8l9.6,3.8v4.9
	c0,0.2,0.1,0.5,0.2,0.6c1.6,1.7,3.6,2.6,5.8,2.6h0l0,0c2.1,0,4.2-0.9,5.7-2.6c0.1-0.2,0.2-0.4,0.2-0.6v-4.9L31,21v9.3
	c0,0.4,0.3,0.8,0.7,0.8c0.4,0,0.7-0.4,0.7-0.8v-9.8l6.9-2.7c0.3-0.1,0.5-0.4,0.5-0.8C39.6,16.6,39.5,16.3,39.2,16.2z M28.3,26
	c-1.3,1.3-3,2-4.6,2h0c-1.7,0-3.3-0.7-4.6-2v-4l4.4,1.8c0.1,0,0.1,0,0.2,0l0,0c0.1,0,0.1,0,0.2,0l4.4-1.8V26z M31.7,19l-7.8-3.1
	c-0.3-0.1-0.7,0.1-0.8,0.5c-0.1,0.4,0.1,0.9,0.4,1l6.1,2.4l-5.9,2.3l-13.2-5.2l13.2-5.2l13.2,5.2L31.7,19z"/>
</svg>
