<?xml version="1.0" encoding="utf-8"?>
<!-- Generator: Adobe Illustrator 15.0.0, SVG Export Plug-In . SVG Version: 6.00 Build 0)  -->
<!DOCTYPE svg PUBLIC "-//W3C//DTD SVG 1.1//EN" "http://www.w3.org/Graphics/SVG/1.1/DTD/svg11.dtd">
<svg version="1.1" id="Layer_1" xmlns="http://www.w3.org/2000/svg" xmlns:xlink="http://www.w3.org/1999/xlink" x="0px" y="0px"
	 width="225.689px" height="115.718px" viewBox="0 0 225.689 115.718" enable-background="new 0 0 225.689 115.718"
	 xml:space="preserve">
<g>
	<path fill-rule="evenodd" clip-rule="evenodd" d="M121.146,16.797c-0.391,0.389-1.759,2.523-1.759,5.047c0,0.584,0,14.951,0,15.533
		c0,1.164-0.586,2.719-1.173,3.301c-0.391,0.389-2.735,2.523-3.127,2.717h1.368c0.586-0.387,5.275-4.465,5.666-5.047
		c0.587-0.777,2.15-2.523,2.15-5.242c0-0.777,0-14.367,0-15.145c0-2.135,0.977-3.494,1.563-4.076
		c0.586-0.584,2.345-2.137,2.735-2.33l-1.368-0.195C126.812,11.748,121.731,16.408,121.146,16.797L121.146,16.797z"/>
	<path fill-rule="evenodd" clip-rule="evenodd" d="M109.617,73.49l5.668,5.047h3.907c3.907,0,7.425-1.746,9.771-4.076
		c2.344-2.33,3.125-5.438,3.125-8.35c0-2.137,0-7.766,0-8.154c0-2.719-1.563-4.271-2.148-4.66c-0.195-0.389-1.954-1.941-1.954-1.941
		v6.213c0,0,1.954,1.941,2.148,2.33c1.759,1.748,1.759,5.049-3.517,10.291c-0.977,0.777-3.713,3.301-7.425,3.301
		C118.801,73.49,109.617,73.49,109.617,73.49L109.617,73.49z"/>
	<path fill-rule="evenodd" clip-rule="evenodd" d="M125.444,40.289c-0.586,0.582-1.172,2.33-1.172,3.689c0,0.775,0,3.105,0,3.105
		s2.54,0,3.127,0c1.172,0,2.734-1.164,3.125-1.746v-2.914c0,0,0.782,1.166,1.759,1.748c0.197-0.389,3.127-3.883,5.473-3.883
		c4.103,0,3.125,4.854,1.563,6.602c-0.587,0.389-2.932,2.523-3.714,3.301c-1.759,1.746-5.081,0.971-5.081-3.689
		c0,0-3.517,3.301-3.907,3.689c-0.586,0.389-2.345,2.33-2.345,2.33s0,7.184,0,7.959c0,3.885-1.368,5.244-2.346,6.408
		c-0.391,0.387-4.885,4.465-5.471,4.854h-1.368c0,0,2.541-2.33,3.127-2.719c0.587-0.775,1.173-1.941,1.173-3.883
		c0-0.582,0-12.814,0-12.814s-19.149,0-19.932,0c-7.034,0-8.402-7.572-8.598-9.707c0-0.582,0-6.602,0-7.572
		c0-1.359-0.781-3.494-1.953-4.078h1.953c0.195,0,1.368,0.584,1.368,5.242c0,0,0,5.438,0,5.826c0,2.328,1.759,5.047,4.689,5.047
		c0.392,0,22.472,0,22.472,0c0-0.582,0.586-2.912,1.759-4.076c0.585-0.777,5.471-5.049,6.057-5.631h1.368
		C128.375,37.57,126.031,39.707,125.444,40.289L125.444,40.289z M132.87,44.949c0,0,1.368,1.746,1.954,2.135
		c2.539,1.941,3.713-0.193,1.954-2.33C136.192,43.783,133.651,44.172,132.87,44.949L132.87,44.949z"/>
	<path fill-rule="evenodd" clip-rule="evenodd" d="M108.64,59.316c0,1.164-3.518,4.076-3.713,4.271
		c-0.195-1.164-0.978-2.525-3.713-5.049l3.908-3.883C107.663,57.18,108.64,57.762,108.64,59.316L108.64,59.316z"/>
	<path fill-rule="evenodd" clip-rule="evenodd" d="M115.285,15.826c0.78,0.775,2.539,2.912,1.366,3.883
		c-0.781,0.775-2.149,2.33-2.149,2.33c0-0.582-1.367-1.748-1.367-1.748s0,3.689,0,4.076c0,1.748-0.586,2.137-0.586,2.137
		s3.126,3.107,3.126,6.99c0,1.746,0,3.494,0,3.883c0,0.775-0.39,1.553-0.782,2.135c-0.391,0.195-3.126,3.107-3.712,3.496
		c-0.781,0.775-1.563,0.775-2.345,0.775c-0.391,0-10.161,0-10.552,0c-1.563,0-3.322-1.164-3.322-2.523c0-0.389,0-3.883,0-3.883
		c0.586,0.582,1.173,1.359,2.346,1.359c1.172,0,2.148-0.971,2.54-1.166c0.195-0.389,8.011-8.348,8.011-8.348
		s-3.712-3.301-6.057-4.855c-1.173-0.775-2.736,0.195-2.932,1.166c-0.586,3.301,0,7.961,0,7.961s-2.345-2.33-2.931-2.912
		c-1.173-1.166-1.173-3.689,0.391-5.242c0.195-0.195,2.345-2.525,5.08-2.525c0.392,0,3.713,0,4.104,0
		c2.932,0,6.058,2.719,6.058,2.719s0.391-0.389,0.391-0.971c0-1.359,0-5.242,0-5.242c-2.149-2.135-2.54-4.271-1.368-5.436
		c1.76-1.748,2.541-2.525,2.541-2.525S113.134,13.689,115.285,15.826L115.285,15.826z M101.996,36.988
		c-0.977,1.164-1.172,1.359-2.148,1.941c0,0,11.528,0,11.919,0c3.126,0,2.54-1.941,1.954-2.912c-1.172-2.137-4.885-6.02-4.885-6.02
		S102.192,36.795,101.996,36.988L101.996,36.988z"/>
	<path fill-rule="evenodd" clip-rule="evenodd" d="M88.513,47.861h-2.149c0,0,2.149,1.164,2.149,4.076c0,0.777,0,8.932,0,9.514
		c0,6.215,5.081,11.844,11.334,11.844c1.172,0,4.494,0,5.275,0c3.127,0,4.104-0.775,6.058-2.523
		c0.586-0.582,1.563-1.553,1.954-1.941c0.977-1.164,2.15-2.137,2.15-5.242c0-0.777,0-2.719,0-3.107c0-2.719-1.564-3.883-2.346-4.66
		c-0.391-0.387-1.759-1.746-1.759-1.746v6.406c0,0,1.368,1.359,1.954,1.943c2.735,1.941,0.586,5.629-1.954,5.629
		c-0.587,0-10.747,0-11.528,0c-4.104,0.195-9.771-3.494-9.771-9.707c0-0.971,0-4.66,0-5.242
		C89.881,47.861,88.513,47.861,88.513,47.861L88.513,47.861z"/>
	<path fill-rule="evenodd" clip-rule="evenodd" d="M100.824,59.316c0,1.164-3.517,4.076-3.517,4.271
		c-0.392-1.164-1.173-2.525-3.908-5.049l3.908-3.883C99.847,57.18,100.824,57.762,100.824,59.316L100.824,59.316z"/>
	<path fill-rule="evenodd" clip-rule="evenodd" d="M60.962,101.447c-0.586,0-5.471,0-6.058,0c-1.954,0-1.758-1.553-1.954-2.912
		v-8.736c0,0,1.368,0,2.932,0c1.563,0,3.712-0.195,5.666,0.971c0,0-1.367-3.689-5.666-3.689H52.95c0,0,0-0.389,0-1.553v-1.166
		c0,0,0-2.33-0.586-3.105c0,0,3.713,0,4.103,0c3.322,0,6.058,0,8.989,1.748c0,0-0.586-4.467-7.425-4.467c-3.908,0-12.506,0-13.092,0
		c0,0,2.345,1.941,2.149,5.824l0.195,15.922c0,3.883,1.563,4.076,1.563,4.076c0.195,0,0.977,0,4.494,0c0.586,0,1.368,0,1.954,0
		c1.954,0,4.494,0,6.448,0c2.931,0,4.103-2.135,4.103-3.301v-1.553C65.847,99.506,64.87,101.447,60.962,101.447L60.962,101.447z"/>
	<path fill-rule="evenodd" clip-rule="evenodd" d="M95.547,100.09V89.021c0-4.271-3.517-5.436-6.252-5.436
		c-3.322,0-4.495,2.912-4.885,3.883c-0.782-2.719-3.518-3.883-5.667-3.883c-4.299,0-5.276,3.883-5.276,3.883
		s-0.195-3.689-3.517-3.689h-3.322c0,0,1.954,0.777,1.954,4.076v12.234c0,4.076,1.563,4.27,1.563,4.27h5.471
		c-0.195-0.193-2.149-1.553-2.149-4.27V89.215c0.196-0.582,0.978-2.135,3.322-2.135c1.367,0,2.735,1.359,2.735,2.912v10.098
		c0,4.076,1.563,4.076,1.563,4.076h5.471c0,0-1.954-1.359-1.954-4.076V89.215c0.195-0.582,0.782-2.135,2.932-2.135
		c1.562,0,2.932,1.359,2.932,2.912c0,0,0,9.32,0,10.098c0,4.27,1.758,4.076,1.758,4.076c2.735,0,5.472,0,5.472,0
		S95.547,102.807,95.547,100.09L95.547,100.09z"/>
	<path fill-rule="evenodd" clip-rule="evenodd" d="M105.123,100.09c0,2.717,2.149,4.076,2.149,4.076s-2.735,0-5.471,0
		c0,0-1.759,0.193-1.759-4.076l0,0V87.855c0-3.299-1.759-4.076-1.759-4.076h3.321c1.173,0,3.518,0,3.518,4.467V100.09
		L105.123,100.09L105.123,100.09z"/>
	<path fill-rule="evenodd" clip-rule="evenodd" d="M121.926,85.332c0,0-0.391-1.553-2.734-1.553c-3.518,0-4.3,4.076-4.3,4.076
		c-0.195-3.299-1.172-4.27-3.517-4.27h-3.321c0,0,1.953,0.775,1.953,4.27v12.234c0,4.076,1.563,4.076,1.563,4.076h5.471
		c-0.195,0-2.149-1.359-2.149-4.076V89.992c0.195-0.971,0.782-1.553,1.368-2.137c1.759-1.164,4.3-0.775,5.666,0.777
		C121.926,88.633,121.926,86.498,121.926,85.332L121.926,85.332z"/>
	<path fill-rule="evenodd" clip-rule="evenodd" d="M147.524,85.914c1.759,0,3.127,0.973,3.127,0.973v-3.107h-4.495v-4.854
		c0,0-1.171,2.137-3.712,4.078c-1.563,1.357-4.886,2.91-4.886,2.91h3.518v14.369c0,3.883,1.76,3.883,1.76,3.883
		c2.93,0,5.472,0,5.472,0s-2.151-1.359-2.151-3.883V85.914C147.524,85.914,146.548,85.914,147.524,85.914L147.524,85.914z"/>
	<path fill-rule="evenodd" clip-rule="evenodd" d="M164.134,92.129c-3.127,3.301-5.472,2.719-7.425,5.047
		c0,0,0.195,3.301,2.734,4.271c0.782,0.389,4.3,1.748,6.449-2.135v3.301c0,0-1.368,1.746-5.863,1.746
		c-5.471,0-9.184-4.27-9.184-9.902c0-5.629,3.127-10.871,8.793-10.871C165.11,83.586,168.042,88.053,164.134,92.129L164.134,92.129z
		 M160.812,90.963c0.781-1.748,1.563-6.018-1.563-5.824c-3.517,0.389-2.932,9.902-2.932,9.902
		C157.49,93.682,159.444,93.488,160.812,90.963L160.812,90.963z"/>
	<path fill-rule="evenodd" clip-rule="evenodd" d="M102.583,82.031c1.367,0,2.54-1.164,2.54-2.521c0-1.359-1.173-2.525-2.54-2.525
		c-1.368,0-2.54,1.166-2.54,2.525C100.042,80.867,101.214,82.031,102.583,82.031L102.583,82.031z"/>
	<path fill-rule="evenodd" clip-rule="evenodd" d="M127.594,101.836c-1.173,0-2.15-1.164-2.15-2.523c0-5.049,4.3-5.824,5.473-7.184
		v8.543C130.329,101.254,129.939,101.836,127.594,101.836L127.594,101.836z M130.917,90.188c-1.368,2.135-11.139,2.523-9.575,10.289
		c0.585,2.914,2.541,3.883,5.08,3.883c2.541,0,3.907-1.359,4.495-2.523c0.39,2.33,1.563,2.33,1.563,2.33c2.93,0,5.471,0,5.471,0
		s-2.15-1.359-2.15-4.076V88.633c0-2.719-3.126-5.047-6.252-5.047c-3.127,0-5.276,1.553-5.276,1.553c0,0.971,0,3.689,0,3.689
		s1.172-2.914,4.104-2.914c2.736,0,2.931,1.359,2.931,2.139C131.306,88.053,131.501,88.828,130.917,90.188L130.917,90.188z"/>
	<path fill-rule="evenodd" clip-rule="evenodd" d="M176.249,98.73c0,1.359-1.368,3.301-4.103,3.301
		c-2.932,0-3.909-2.914-3.909-2.914v3.689c0,0,1.954,1.553,5.08,1.553c3.713,0,7.622-2.912,7.427-6.795
		c0-1.359-0.392-2.523-1.173-3.689c-1.368-1.553-3.712-2.719-5.471-3.883c-0.978-0.582-1.563-1.746-1.563-2.137
		c0-0.775,0.391-2.135,3.127-2.135c2.734,0,3.907,2.912,3.907,2.912v-3.494c0,0-2.149-1.553-5.275-1.553
		c-3.322,0-6.254,2.135-6.254,4.854c0.195,2.523,1.173,4.076,3.127,5.436c0.78,0.582,1.759,1.166,2.932,1.748
		C175.664,96.594,176.249,97.564,176.249,98.73L176.249,98.73z"/>
</g>
</svg>
