<?xml version="1.0" encoding="utf-8"?>
<!-- Generator: Adobe Illustrator 19.2.0, SVG Export Plug-In . SVG Version: 6.00 Build 0)  -->
<svg version="1.1" id="Layer_1" xmlns="http://www.w3.org/2000/svg" xmlns:xlink="http://www.w3.org/1999/xlink" x="0px" y="0px"
	 viewBox="0 0 50 50" style="enable-background:new 0 0 50 50;" xml:space="preserve">
<style type="text/css">
	.st0{opacity:0.3;fill-rule:evenodd;clip-rule:evenodd;}
	.st1{opacity:0.4;fill-rule:evenodd;clip-rule:evenodd;}
	.st2{opacity:0.25;fill-rule:evenodd;clip-rule:evenodd;}
	.st3{opacity:0.2;fill-rule:evenodd;clip-rule:evenodd;}
	.st4{opacity:0.6;fill-rule:evenodd;clip-rule:evenodd;}
	.st5{opacity:0.5;fill-rule:evenodd;clip-rule:evenodd;}
</style>
<g>
	<path class="st0" d="M17,17h4v4h-4V17z"/>
	<path class="st1" d="M21,17h4v4h-4V17z"/>
	<path class="st2" d="M25,17h4v4h-4V17z"/>
	<path class="st3" d="M29,17h4v4h-4V17z"/>
	<path class="st3" d="M17,21h4v4h-4V21z"/>
	<path class="st1" d="M21,21h4v4h-4V21z"/>
	<path class="st4" d="M25,21h4v4h-4V21z"/>
	<path class="st0" d="M29,21h4v4h-4V21z"/>
	<path class="st1" d="M17,25h4v4h-4V25z"/>
	<path class="st4" d="M21,25h4v4h-4V25z"/>
	<path class="st1" d="M25,25h4v4h-4V25z"/>
	<path class="st3" d="M29,25h4v4h-4V25z"/>
	<path class="st2" d="M17,29h4v4h-4V29z"/>
	<path class="st3" d="M21,29h4v4h-4V29z"/>
	<path class="st5" d="M25,29h4v4h-4V29z"/>
	<path class="st0" d="M29,29h4v4h-4V29z"/>
</g>
</svg>
