<?xml version="1.0" encoding="utf-8"?>
<!-- Generator: Adobe Illustrator 19.2.0, SVG Export Plug-In . SVG Version: 6.00 Build 0)  -->
<svg version="1.1" id="Layer_1" xmlns="http://www.w3.org/2000/svg" xmlns:xlink="http://www.w3.org/1999/xlink" x="0px" y="0px"
	 viewBox="0 0 47.3 41.1" style="enable-background:new 0 0 47.3 41.1;" xml:space="preserve">
<path d="M33.7,28c3.4-4.5,3.3-10.7-0.2-15.2l0.7-0.7c0.3-0.3,0.3-0.8,0-1.2L33,9.8c-0.3-0.3-0.8-0.3-1.2,0l-0.7,0.7
	c-2.1-1.6-4.7-2.5-7.5-2.5c-2.7,0-5.3,0.9-7.5,2.5l-0.8-0.8c-0.3-0.3-0.8-0.3-1.2,0L13.1,11c-0.3,0.3-0.3,0.8,0,1.2l0.7,0.7
	c-3.5,4.4-3.5,10.7-0.2,15.2l-0.7,0.7c-0.3,0.3-0.3,0.8,0,1.2l1.2,1.2c0.3,0.3,0.8,0.3,1.2,0l0.6-0.6c2.2,1.7,4.9,2.7,7.7,2.7
	c2.8,0,5.5-0.9,7.7-2.7l0.5,0.5c0.3,0.3,0.8,0.3,1.2,0l1.2-1.2c0.3-0.3,0.3-0.8,0-1.2L33.7,28z M23.6,9.7c2.3,0,4.5,0.7,6.3,2
	L27.6,14c-1.2-0.7-2.5-1.1-4-1.1c-1.4,0-2.8,0.4-4,1.1l-2.4-2.4C19.2,10.4,21.3,9.7,23.6,9.7z M27,26.1c-1,0.6-2.2,1-3.4,1
	c-1.3,0-2.5-0.4-3.5-1c0.1-0.3,0-0.6-0.2-0.8L18.8,24c-0.2-0.2-0.5-0.3-0.7-0.2c-1.2-2.1-1.2-4.7,0.2-6.8c0.3,0,0.5,0,0.7-0.2
	l1.2-1.2c0.2-0.2,0.2-0.4,0.2-0.7c1-0.6,2.1-0.9,3.3-0.9c1.2,0,2.3,0.3,3.3,0.9c0,0.2,0.1,0.5,0.2,0.6l1.2,1.2
	c0.2,0.2,0.5,0.3,0.7,0.2c1.3,2,1.4,4.6,0.2,6.7c-0.3-0.2-0.7-0.1-0.9,0.2L27.2,25C26.9,25.3,26.9,25.7,27,26.1z M14.7,26.9
	C12,23,12.1,17.8,14.9,14l2.3,2.3c-1.7,2.5-1.7,5.7-0.2,8.2L14.7,26.9z M23.6,31.5c-2.4,0-4.7-0.8-6.6-2.2l2.3-2.3
	c1.2,0.8,2.7,1.3,4.3,1.3c1.5,0,3-0.4,4.2-1.3l2.3,2.3C28.3,30.7,26,31.5,23.6,31.5z M32.5,26.9l-2.4-2.4c1.5-2.5,1.5-5.8-0.2-8.2
	l2.3-2.3C35.2,17.8,35.3,23,32.5,26.9z"/>
</svg>
