<?xml version="1.0" encoding="utf-8"?>
<!-- Generator: Adobe Illustrator 19.2.0, SVG Export Plug-In . SVG Version: 6.00 Build 0)  -->
<svg version="1.1" id="Layer_1" xmlns="http://www.w3.org/2000/svg" xmlns:xlink="http://www.w3.org/1999/xlink" x="0px" y="0px"
	 viewBox="0 0 47.3 41.1" style="enable-background:new 0 0 47.3 41.1;" xml:space="preserve">
<g>
	<g>
		<path d="M17,18.1c0,0.4,0.2,0.5,0.6,0.5h12c0.4,0,0.6-0.1,0.6-0.5c0-0.4-0.2-0.5-0.6-0.5h-12C17.3,17.6,17,17.7,17,18.1z
			 M17.6,21.6h12c0.4,0,0.6,0.1,0.6-0.3s-0.3-0.7-0.7-0.7H17.7c-0.4,0-0.7,0.3-0.7,0.7S17.3,21.6,17.6,21.6z M17.6,24.6h12
			c0.4,0,0.6,0.3,0.6-0.1c0-0.4-0.2-0.9-0.6-0.9h-12c-0.4,0-1,0.6-1,1S17.3,24.6,17.6,24.6z M17.6,26.6c-0.4,0-1,0.6-1,1s0.6,0,1,0
			h12c0.4,0,1,0.4,1,0s-0.6-1-1-1H17.6z M32.9,12.2h-3.6c-0.1-1-0.9-1.8-2-1.8h-1.9c0-1-0.9-1.8-1.9-1.8s-1.8,0.8-1.9,1.8h-1.9
			c-1,0-1.9,0.8-2,1.8h-3.6c-0.4,0-0.7,0.3-0.7,0.7v19c0,0.4,0.3,0.7,0.7,0.7h18.6c0.4,0,0.7-0.3,0.7-0.7v-19
			C33.6,12.5,33.3,12.2,32.9,12.2z M19.3,12.3c0-0.3,0.3-0.6,0.6-0.6H22c0.7,0,1.2-0.5,1.2-1.2v-0.2c0-0.3,0.2-0.5,0.5-0.5
			c0.3,0,0.5,0.2,0.5,0.5v0.2c0,0.6,0.5,1.2,1.2,1.2h2.1c0.3,0,0.6,0.3,0.6,0.6v1.3h-8.7V12.3z M31.6,30.6h-16v-16l2.3-1v0.8
			c0,0.4,0.3,0.7,0.7,0.7h10c0.4,0,0.7-0.3,0.7-0.7v-0.8l2.3,1V30.6z M23.6,11.8c-0.4,0-0.6,0.3-0.6,0.6c0,0.3,0.3,0.6,0.6,0.6
			c0.4,0,0.6-0.3,0.6-0.6C24.3,12.1,24,11.8,23.6,11.8z"/>
	</g>
</g>
</svg>
